<svg width="26" height="16" viewBox="0 0 26 16" fill="none" xmlns="http://www.w3.org/2000/svg">
<path fill-rule="evenodd" clip-rule="evenodd" d="M0.200195 2.5C0.200195 1.11929 1.31948 0 2.7002 0H23.3002C24.6809 0 25.8002 1.11929 25.8002 2.5V13.5C25.8002 14.8807 24.6809 16 23.3002 16H2.7002C1.31949 16 0.200195 14.8807 0.200195 13.5V2.5Z" fill="#007ECD"/>
<path fill-rule="evenodd" clip-rule="evenodd" d="M20.8668 10.7129H19.8633V10.2177H20.7391C20.7391 10.2177 21.0584 10.2541 21.0584 10.0473C21.0584 9.85361 20.581 9.86867 20.581 9.86867C20.581 9.86867 19.803 9.93425 19.803 9.22814C19.803 8.52573 20.5059 8.56582 20.5059 8.56582H21.5852V9.06801H20.7165C20.7165 9.06801 20.4156 9.00937 20.4156 9.22119C20.4156 9.3987 20.8254 9.37344 20.8254 9.37344C20.8254 9.37344 21.6861 9.3118 21.6861 9.95951C21.6861 10.6538 21.1316 10.7157 20.9349 10.7157C20.8926 10.7157 20.8668 10.7129 20.8668 10.7129ZM15.8609 10.7164V8.56954H17.6195V9.06801H16.4281V9.39871H17.5898V9.88675H16.4281V10.2511H17.6195V10.7164H15.8609ZM18.8787 10.7129H17.875V10.2177H18.7547C18.7547 10.2177 19.0704 10.2541 19.0704 10.0473C19.0704 9.85361 18.593 9.86867 18.593 9.86867C18.593 9.86867 17.815 9.93425 17.815 9.22814C17.815 8.52573 18.5178 8.56582 18.5178 8.56582H19.6008V9.06801H18.7287C18.7287 9.06801 18.4276 9.00937 18.4276 9.22119C18.4276 9.3987 18.8369 9.37344 18.8369 9.37344C18.8369 9.37344 19.6981 9.3118 19.6981 9.95951C19.6981 10.6538 19.1436 10.7157 18.9468 10.7157C18.9043 10.7157 18.8787 10.7129 18.8787 10.7129ZM11.2754 10.7166H10.7832L10.1854 10.0793L9.5842 10.7166H9.24201H7.48685V8.56229H9.24201H9.53896L10.1854 9.24639L10.8357 8.566H11.2681V8.56229H12.6361C12.6361 8.56229 13.3504 8.48582 13.3504 9.19495C13.3504 9.8283 13.113 10.025 12.3844 10.025H11.8318V10.7166H11.2754ZM10.5686 9.65789L11.2678 10.4071V8.91145L10.5686 9.65789ZM8.05394 10.2507H9.24148L9.79792 9.65794L9.24148 9.06816H8.05394V9.39885H9.21157V9.8869H8.05394V10.2507ZM11.8315 9.46407H12.414C12.5832 9.46407 12.7224 9.37323 12.7224 9.26037C12.7224 9.14798 12.5832 9.05667 12.414 9.05667H11.8315V9.46407ZM15.0345 10.7199V10.3014C15.0345 10.3014 15.0114 9.97393 14.6581 9.97393H14.1099V10.7199H13.5457V8.56934H14.9142C14.9142 8.56934 15.6282 8.48568 15.6282 9.19875C15.6282 9.57 15.3125 9.70093 15.3125 9.70093C15.3125 9.70093 15.5832 9.82468 15.5832 10.1883V10.7199H15.0345ZM14.1091 9.46821H14.6915C14.8608 9.46821 14.9997 9.37736 14.9997 9.26451C14.9997 9.15165 14.8608 9.06081 14.6915 9.06081H14.1091V9.46821ZM13.6845 7.77622H14.2516V5.61871H13.6845V7.77622ZM9.31681 7.76881V5.61848H11.0759V6.12043H9.88444V6.45159H11.046V6.93917H9.88444V7.30347H11.0759V7.76881H9.31681ZM8.43413 7.76973V6.28496L7.72764 7.76973H7.26532L6.55493 6.29215V7.76973H6.06245H5.9873H5.4423L5.24676 7.31853H4.21706L4.01788 7.76973H3.40137L4.3372 5.61894H5.13027L5.9873 7.595V5.61894H6.87814L7.4983 6.95446L8.11457 5.61894H9.00541V7.76973H8.43413ZM4.45651 6.7682H5.00517L4.73084 6.1279L4.45651 6.7682ZM19.5097 7.76896L18.6157 6.33147V7.76896H18.1308H18.0401H17.5106L17.3115 7.31776H16.2815L16.0857 7.76896H15.567H15.4731H15.2024C15.2024 7.76896 14.4436 7.66329 14.4436 6.75371C14.4436 5.56001 15.3043 5.60728 15.334 5.6001L16.0293 5.61817V6.10228L15.4585 6.10947C15.4585 6.10947 15.0862 6.10947 15.0407 6.57897C15.0358 6.6332 15.0332 6.68233 15.0336 6.72845C15.0358 7.45542 15.6852 7.22993 15.7066 7.22298L16.4055 5.61817H17.1945L18.0401 7.56874V5.61817H18.837L19.7203 7.03388V5.61817H20.2882V7.76896H19.5097ZM16.5227 6.7682H17.0716L16.8009 6.1279L16.5227 6.7682ZM12.8567 7.76884V7.35032C12.8567 7.35032 12.8343 7.02287 12.4809 7.02287H11.9323V7.76884H11.3683V5.61805H12.7365C12.7365 5.61805 13.4506 5.53439 13.4506 6.24769C13.4506 6.61894 13.1349 6.74988 13.1349 6.74988C13.1349 6.74988 13.4092 6.87363 13.4092 7.23746V7.76884H12.8567ZM11.9326 6.51715H12.5151C12.6843 6.51715 12.8232 6.42608 12.8232 6.31322C12.8232 6.20059 12.6843 6.10952 12.5151 6.10952H11.9326V6.51715Z" fill="white"/>
</svg>
