<svg width="20" height="19" viewBox="0 0 20 19" fill="none" xmlns="http://www.w3.org/2000/svg">
<path fill-rule="evenodd" clip-rule="evenodd" d="M8.9873 0.721377C9.184 0.721078 9.39559 0.72117 9.62394 0.72127L10.0003 0.721377C13.0153 0.721377 13.3726 0.731917 14.5632 0.784616C15.6642 0.833649 16.2617 1.01282 16.6598 1.16336C17.1867 1.3627 17.5624 1.60099 17.9574 1.98592C18.3526 2.37085 18.5973 2.73745 18.8024 3.25069C18.957 3.63791 19.1412 4.21988 19.1913 5.29219C19.2454 6.45156 19.2572 6.79983 19.2572 9.73492C19.2572 12.67 19.2454 13.0183 19.1913 14.1776C19.141 15.2499 18.957 15.8319 18.8024 16.2191C18.5978 16.7324 18.3526 17.0978 17.9574 17.4825C17.5622 17.8675 17.187 18.1058 16.6598 18.3051C16.2622 18.4563 15.6642 18.635 14.5632 18.6841C13.3729 18.7368 13.0153 18.7482 10.0003 18.7482C6.98508 18.7482 6.62773 18.7368 5.43736 18.6841C4.33639 18.6346 3.73885 18.4554 3.34057 18.3049C2.81361 18.1055 2.43721 17.8672 2.04199 17.4823C1.64676 17.0974 1.4021 16.7317 1.19696 16.2182C1.0424 15.831 0.858202 15.249 0.808093 14.1767C0.753986 13.0174 0.743164 12.6691 0.743164 9.73217C0.743164 6.79524 0.753986 6.44881 0.808093 5.28944C0.858437 4.21713 1.0424 3.63516 1.19696 3.24748C1.40163 2.73424 1.64676 2.36764 2.04199 1.98271C2.43721 1.59778 2.81361 1.35949 3.34057 1.15969C3.73862 1.00847 4.33639 0.829753 5.43736 0.780492C6.47906 0.734667 6.88275 0.720919 8.9873 0.718628V0.721377ZM16.0279 2.54713C15.2798 2.54713 14.6729 3.13759 14.6729 3.86643C14.6729 4.59505 15.2798 5.18619 16.0279 5.18619C16.776 5.18619 17.3829 4.59505 17.3829 3.86643C17.3829 3.13782 16.776 2.54668 16.0279 2.54668V2.54713ZM4.20215 9.73686C4.20215 6.61786 6.79849 4.08906 10.0009 4.08894C13.2033 4.08894 15.7991 6.61779 15.7991 9.73686C15.7991 12.8559 13.2036 15.3836 10.0011 15.3836C6.79862 15.3836 4.20215 12.8559 4.20215 9.73686Z" fill="#CCCCCC"/>
<path d="M9.99937 6.07104C12.078 6.07104 13.7634 7.71227 13.7634 9.73704C13.7634 11.7616 12.078 13.403 9.99937 13.403C7.92046 13.403 6.23535 11.7616 6.23535 9.73704C6.23535 7.71227 7.92046 6.07104 9.99937 6.07104Z" fill="#CCCCCC"/>
</svg>
