<svg width="26" height="16" viewBox="0 0 26 16" fill="none" xmlns="http://www.w3.org/2000/svg">
<rect x="0.399414" width="25.6" height="16" rx="2.5" fill="#353A48"/>
<path fill-rule="evenodd" clip-rule="evenodd" d="M13.0321 11.4549C12.216 12.1457 11.1575 12.5628 10.0008 12.5628C7.41963 12.5628 5.32715 10.4859 5.32715 7.92396C5.32715 5.36202 7.41963 3.28516 10.0008 3.28516C11.1575 3.28516 12.216 3.7022 13.0321 4.39305C13.8482 3.7022 14.9067 3.28516 16.0634 3.28516C18.6446 3.28516 20.7371 5.36202 20.7371 7.92396C20.7371 10.4859 18.6446 12.5628 16.0634 12.5628C14.9067 12.5628 13.8482 12.1457 13.0321 11.4549Z" fill="#FF5E00"/>
<path fill-rule="evenodd" clip-rule="evenodd" d="M13.0321 11.4549C12.216 12.1457 11.1575 12.5628 10.0008 12.5628C7.41963 12.5628 5.32715 10.4859 5.32715 7.92396C5.32715 5.36202 7.41963 3.28516 10.0008 3.28516C11.1575 3.28516 12.216 3.7022 13.0321 4.39305C12.027 5.24389 11.3897 6.51006 11.3897 7.92396C11.3897 9.33787 12.027 10.604 13.0321 11.4549Z" fill="#ED0006"/>
<path fill-rule="evenodd" clip-rule="evenodd" d="M13.0322 11.4543C13.8484 12.1453 14.9071 12.5625 16.0639 12.5625C18.6451 12.5625 20.7376 10.4857 20.7376 7.92372C20.7376 5.36178 18.6451 3.28491 16.0639 3.28491C14.9071 3.28491 13.8484 3.7021 13.0322 4.39317C14.0371 5.24401 14.6742 6.51001 14.6742 7.92372C14.6742 9.33742 14.0371 10.6034 13.0322 11.4543Z" fill="#F9A000"/>
</svg>
