<svg width="35" height="48" viewBox="0 0 35 48" fill="none" xmlns="http://www.w3.org/2000/svg">
<g clip-path="url(#clip0_213_16)">
<path d="M17.2771 24.8409C21.2795 24.8409 24.5241 21.6481 24.5241 17.7097C24.5241 13.7712 21.2795 10.5784 17.2771 10.5784C13.2746 10.5784 10.03 13.7712 10.03 17.7097C10.03 21.6481 13.2746 24.8409 17.2771 24.8409Z" stroke="#999999" stroke-width="2" stroke-miterlimit="10"/>
<path d="M33.1787 17.7097C33.1787 15.9375 34.1828 14.0219 33.6509 12.4246C33.1017 10.7742 31.1323 9.84477 30.1095 8.47381C29.0822 7.09538 28.7543 4.94593 27.3459 3.94554C25.9578 2.95934 23.824 3.35158 22.1595 2.82412C20.5584 2.31533 19.05 0.747131 17.2771 0.747131C15.5034 0.747131 13.9957 2.31533 12.3939 2.82337C10.7286 3.35083 8.59556 2.9586 7.20742 3.94479C5.79836 4.94593 5.47112 7.09538 4.44383 8.47381C3.42178 9.84477 1.45163 10.7742 0.9025 12.4246C0.3713 14.0219 1.37468 15.9368 1.37468 17.7089C1.37468 19.4811 0.370553 21.3967 0.9025 22.994C1.45163 24.6444 3.42103 25.5738 4.44383 26.9448C5.47112 28.3232 5.7991 30.4727 7.20742 31.473C8.59556 32.4592 10.7293 32.067 12.3939 32.5945C13.9957 33.1025 15.5034 34.6707 17.2771 34.6707C19.0507 34.6707 20.5584 33.1025 22.1602 32.5945C23.8248 32.067 25.9586 32.4585 27.3467 31.4723C28.7558 30.4712 29.083 28.3217 30.1103 26.9433C31.1323 25.5723 33.1025 24.6429 33.6516 22.9925C34.1828 21.3967 33.1787 19.4818 33.1787 17.7097Z" stroke="#999999" stroke-width="2" stroke-miterlimit="10"/>
<path d="M11.3 32.1761V47.2529L17.277 42.1591L23.2539 47.2529V32.1761" stroke="#999999" stroke-width="2" stroke-miterlimit="10" stroke-linejoin="round"/>
</g>
<defs>
<clipPath id="clip0_213_16">
<rect width="34.5534" height="48" fill="white"/>
</clipPath>
</defs>
</svg>
