<svg width="26" height="16" viewBox="0 0 26 16" fill="none" xmlns="http://www.w3.org/2000/svg">
<path fill-rule="evenodd" clip-rule="evenodd" d="M0 2.5C0 1.11929 1.11929 0 2.5 0H23.1C24.4807 0 25.6 1.11929 25.6 2.5V13.5C25.6 14.8807 24.4807 16 23.1 16H2.5C1.11929 16 0 14.8807 0 13.5V2.5Z" fill="#224DBA"/>
<path fill-rule="evenodd" clip-rule="evenodd" d="M8.67017 10.5115H7.33074L6.32633 6.67149C6.27866 6.49485 6.17743 6.33869 6.02854 6.26509C5.65694 6.08013 5.24748 5.93293 4.80078 5.85869V5.71085H6.9585C7.25629 5.71085 7.47964 5.93293 7.51686 6.19085L8.03801 8.96077L9.37678 5.71085H10.679L8.67017 10.5115ZM11.4233 10.5115H10.1583L11.2 5.71085H12.4649L11.4233 10.5115ZM14.101 7.04074C14.1382 6.78218 14.3615 6.63434 14.6221 6.63434C15.0316 6.59722 15.4776 6.67146 15.8499 6.85578L16.0732 5.82218C15.701 5.67434 15.2915 5.6001 14.9199 5.6001C13.6921 5.6001 12.7988 6.26506 12.7988 7.18794C12.7988 7.89002 13.4316 8.25866 13.8783 8.48074C14.3615 8.70218 14.5477 8.85002 14.5104 9.07146C14.5104 9.40362 14.1382 9.55146 13.7666 9.55146C13.3199 9.55146 12.8732 9.44074 12.4644 9.25578L12.241 10.29C12.6877 10.4743 13.171 10.5486 13.6177 10.5486C14.9943 10.5851 15.8499 9.92074 15.8499 8.92362C15.8499 7.66794 14.101 7.59434 14.101 7.04074ZM20.2771 10.5115L19.2726 5.71085H18.1938C17.9704 5.71085 17.7471 5.85869 17.6726 6.08013L15.8127 10.5115H17.1149L17.3749 9.81005H18.9749L19.1237 10.5115H20.2771ZM18.3798 7.00359L18.7514 8.81287H17.7098L18.3798 7.00359Z" fill="white"/>
</svg>
