<svg width="20" height="12" viewBox="0 0 20 12" fill="none" xmlns="http://www.w3.org/2000/svg">
<path d="M10.9755 11.3671C10.9755 11.3671 11.3343 11.3296 11.5182 11.1436C11.6864 10.9732 11.6806 10.6516 11.6806 10.6516C11.6806 10.6516 11.6582 9.15015 12.3984 8.92845C13.1278 8.71041 14.0645 10.3805 15.0585 11.0227C15.8093 11.5082 16.3793 11.4019 16.3793 11.4019L19.0355 11.3671C19.0355 11.3671 20.4244 11.2865 19.7659 10.2577C19.7114 10.1734 19.3817 9.49643 17.7915 8.10578C16.1254 6.65009 16.3491 6.88553 18.3547 4.36715C19.5763 2.83358 20.0645 1.89732 19.9118 1.49698C19.7669 1.11405 18.8682 1.21574 18.8682 1.21574L15.8784 1.23314C15.8784 1.23314 15.6566 1.20474 15.4923 1.29727C15.3318 1.38796 15.2277 1.59958 15.2277 1.59958C15.2277 1.59958 14.755 2.78594 14.1238 3.7955C12.7923 5.92453 12.2603 6.03721 12.0424 5.90529C11.5357 5.59656 11.6621 4.66671 11.6621 4.0062C11.6621 1.94221 11.9948 1.08198 11.0153 0.85937C10.6905 0.785165 10.4512 0.736611 9.61964 0.728366C8.55268 0.718289 7.6501 0.732031 7.13851 0.96747C6.79809 1.12412 6.53549 1.47408 6.69597 1.49423C6.89341 1.51897 7.34081 1.60783 7.57812 1.91198C7.8845 2.30499 7.8738 3.18628 7.8738 3.18628C7.8738 3.18628 8.04984 5.6158 7.46238 5.9172C7.05972 6.12424 6.50728 5.70192 5.31972 3.76984C4.71184 2.78045 4.25277 1.68662 4.25277 1.68662C4.25277 1.68662 4.16426 1.48232 4.00573 1.37239C3.81412 1.23955 3.54665 1.19833 3.54665 1.19833L0.705656 1.21574C0.705656 1.21574 0.278679 1.22673 0.122089 1.40171C-0.0169944 1.55653 0.11139 1.87808 0.11139 1.87808C0.11139 1.87808 2.33575 6.78017 4.85481 9.25092C7.16477 11.5155 9.78693 11.3671 9.78693 11.3671H10.9755Z" fill="#CCCCCC"/>
</svg>
